<svg width="221" height="221" viewBox="0 0 221 221" fill="none" xmlns="http://www.w3.org/2000/svg">
<g clip-path="url(#clip0_24_199)">
<path d="M122.046 164.712C152.087 158.251 171.202 128.661 164.741 98.6203C158.281 68.5795 128.69 49.4641 98.6495 55.9248C68.6088 62.3855 49.4934 91.9758 55.9541 122.016C62.4148 152.057 92.0051 171.173 122.046 164.712Z" fill="#E2FF2D"/>
<path d="M103.628 156.701C78.0529 152.995 60.2613 129.173 63.9662 103.598C67.6711 78.0229 91.4944 60.2307 117.07 63.9374C142.645 67.6439 160.436 91.465 156.73 117.039C153.024 142.614 129.203 160.407 103.628 156.701ZM116.534 67.639C92.9987 64.2287 71.0809 80.5969 67.6689 104.135C64.2568 127.673 80.6303 149.588 104.169 153.002C127.707 156.416 149.624 140.04 153.033 116.506C156.443 92.9724 140.067 71.0496 116.534 67.639Z" fill="#101010"/>
<path d="M105.79 141.771C89.2997 139.381 77.3809 124.508 78.6571 107.911C78.7289 107.444 78.9747 107.021 79.3451 106.726C79.7155 106.432 80.1834 106.289 80.655 106.325C81.1266 106.362 81.5671 106.575 81.8883 106.922C82.2096 107.269 82.3878 107.725 82.3873 108.198C81.2611 122.839 91.778 135.96 106.328 138.069C120.878 140.178 134.687 130.581 137.764 116.222C137.811 115.977 137.906 115.745 138.044 115.537C138.182 115.33 138.36 115.153 138.568 115.015C138.775 114.878 139.008 114.783 139.253 114.737C139.497 114.691 139.749 114.694 139.992 114.746C140.235 114.798 140.466 114.898 140.67 115.041C140.874 115.183 141.048 115.365 141.181 115.575C141.314 115.786 141.404 116.021 141.445 116.266C141.486 116.512 141.477 116.763 141.42 117.005C137.932 133.283 122.282 144.161 105.79 141.771Z" fill="#101010"/>
<path d="M97.6227 112.499C101.59 113.074 105.695 107.404 106.792 99.8345C107.888 92.2654 105.561 85.6635 101.593 85.0888C97.6259 84.5142 93.5208 90.1841 92.4242 97.7532C91.3277 105.322 93.6551 111.924 97.6227 112.499Z" fill="#101010"/>
<path d="M121.945 116.022C125.912 116.597 130.017 110.927 131.114 103.358C132.21 95.789 129.883 89.1873 125.915 88.6124C121.948 88.0378 117.843 93.7078 116.746 101.277C115.65 108.846 117.977 115.448 121.945 116.022Z" fill="#101010"/>
</g>
<defs>
<clipPath id="clip0_24_199">
<rect width="156.56" height="156.56" fill="white" transform="translate(99.1709 0.185303) rotate(39.2166)"/>
</clipPath>
</defs>
</svg>
